<?xml version="1.0" encoding="UTF-8" standalone="no"?>
<svg
   width="185.23923mm"
   height="185.23601mm"
   viewBox="0 0 185.23923 185.23601"
   version="1.1"
   id="svg919"
   inkscape:version="1.2.2 (b0a8486541, 2022-12-01)"
   sodipodi:docname="logo_white.svg"
   inkscape:export-filename="/home/jhewers/Documents/autonoma/frontend/src/img/logo.png"
   inkscape:export-xdpi="140.41086"
   inkscape:export-ydpi="140.41086"
   xml:space="preserve"
   xmlns:inkscape="http://www.inkscape.org/namespaces/inkscape"
   xmlns:sodipodi="http://sodipodi.sourceforge.net/DTD/sodipodi-0.dtd"
   xmlns="http://www.w3.org/2000/svg"
   xmlns:svg="http://www.w3.org/2000/svg"
   xmlns:rdf="http://www.w3.org/1999/02/22-rdf-syntax-ns#"
   xmlns:cc="http://creativecommons.org/ns#"
   xmlns:dc="http://purl.org/dc/elements/1.1/"><defs
     id="defs913">
	
	

	
	

	
	

	
	

	
	

	
	
</defs><sodipodi:namedview
     id="base"
     pagecolor="#ffffff"
     bordercolor="#666666"
     borderopacity="1.0"
     inkscape:pageopacity="0"
     inkscape:pageshadow="2"
     inkscape:zoom="0.49497475"
     inkscape:cx="461.63971"
     inkscape:cy="407.09147"
     inkscape:document-units="mm"
     inkscape:current-layer="layer1"
     inkscape:document-rotation="0"
     showgrid="false"
     inkscape:window-width="1920"
     inkscape:window-height="1006"
     inkscape:window-x="0"
     inkscape:window-y="420"
     inkscape:window-maximized="1"
     inkscape:pagecheckerboard="true"
     inkscape:showpageshadow="0"
     inkscape:deskcolor="#d1d1d1" /><metadata
     id="metadata916"><rdf:RDF><cc:Work
         rdf:about=""><dc:format>image/svg+xml</dc:format><dc:type
           rdf:resource="http://purl.org/dc/dcmitype/StillImage" /></cc:Work></rdf:RDF></metadata><g
     inkscape:label="Layer 1"
     inkscape:groupmode="layer"
     id="layer1"
     transform="translate(-265.70182,68.427528)"><path
       id="path3006"
       style="fill:#ffffff;fill-opacity:1;stroke:none;stroke-width:0;stroke-linecap:round;stroke-linejoin:round;stop-color:#000000"
       d="M 209.5586 73.519532 C 162.25642 73.519453 114.95492 91.642735 78.708985 127.88867 C 6.2163564 200.38075 6.2163564 317.10178 78.708985 389.59375 L 350.05665 660.94532 L 621.40821 389.59375 C 693.90092 317.10178 693.90092 200.38067 621.40821 127.88867 C 548.9163 55.396843 432.19699 55.39676 359.70508 127.88867 L 350.0586 137.53516 L 340.41211 127.88867 C 304.16697 91.642735 256.86235 73.519683 209.5586 73.519532 z M 343.6836 197.61524 L 356.4336 197.61524 C 360.39477 197.61524 363.60547 200.15178 363.60547 203.2793 L 363.60547 458.16407 C 363.60547 461.29159 360.39477 463.82813 356.4336 463.82813 L 343.6836 463.82813 C 339.72247 463.82813 336.51172 461.29159 336.51172 458.16407 L 336.51172 203.2793 C 336.51172 200.15178 339.72247 197.61524 343.6836 197.61524 z M 306.63086 217.76758 L 319.37891 217.76758 C 323.34004 217.76758 326.55079 220.97949 326.55079 224.93946 L 326.55079 436.50391 C 326.55079 440.46387 323.34004 443.67579 319.37891 443.67579 L 306.63086 443.67579 C 302.66973 443.67579 299.45899 440.46387 299.45899 436.50391 L 299.45899 224.93946 C 299.45899 220.97949 302.66973 217.76758 306.63086 217.76758 z M 269.57618 236.29492 L 282.32618 236.29492 C 286.28734 236.29492 289.49805 239.50683 289.49805 243.4668 L 289.49805 417.97852 C 289.49805 421.93849 286.28734 425.1504 282.32618 425.1504 L 269.57618 425.1504 C 265.61501 425.1504 262.4043 421.93849 262.4043 417.97852 L 262.4043 243.4668 C 262.4043 239.50683 265.61501 236.29492 269.57618 236.29492 z M 380.73829 236.29492 L 393.48633 236.29492 C 397.44746 236.29492 400.65821 239.50683 400.65821 243.4668 L 400.65821 417.97852 C 400.65821 421.93849 397.44746 425.1504 393.48633 425.1504 L 380.73829 425.1504 C 376.77712 425.1504 373.56641 421.93849 373.56641 417.97852 L 373.56641 243.4668 C 373.56641 239.50683 376.77712 236.29492 380.73829 236.29492 z M 454.84571 254.82227 L 467.59376 254.82227 C 471.55492 254.82227 474.76563 258.03418 474.76563 261.99414 L 474.76563 399.45118 C 474.76563 403.41114 471.55492 406.62305 467.59376 406.62305 L 454.84571 406.62305 C 450.88454 406.62305 447.67383 403.41114 447.67383 399.45118 L 447.67383 261.99414 C 447.67383 258.03418 450.88454 254.82227 454.84571 254.82227 z M 232.52344 273.34766 L 245.27149 273.34766 C 249.23266 273.34766 252.44336 276.55957 252.44336 280.51953 L 252.44336 380.92383 C 252.44336 384.8838 249.23266 388.09571 245.27149 388.09571 L 232.52344 388.09571 C 228.56227 388.09571 225.35157 384.8838 225.35157 380.92383 L 225.35157 280.51953 C 225.35157 276.55957 228.56227 273.34766 232.52344 273.34766 z M 417.79102 273.34766 L 430.54102 273.34766 C 434.50219 273.34766 437.7129 276.55957 437.7129 280.51953 L 437.7129 380.92383 C 437.7129 384.8838 434.50219 388.09571 430.54102 388.09571 L 417.79102 388.09571 C 413.82985 388.09571 410.61915 384.8838 410.61915 380.92383 L 410.61915 280.51953 C 410.61915 276.55957 413.82985 273.34766 417.79102 273.34766 z M 491.89844 291.8711 L 504.64844 291.8711 C 508.60957 291.8711 511.82032 295.08301 511.82032 299.04297 L 511.82032 362.39258 C 511.82032 366.35255 508.60957 369.56446 504.64844 369.56446 L 491.89844 369.56446 C 487.93728 369.56446 484.72852 366.35255 484.72852 362.39258 L 484.72852 299.04297 C 484.72852 295.08301 487.93728 291.8711 491.89844 291.8711 z M 195.46875 291.875 L 208.21875 291.875 C 212.17992 291.875 215.38867 295.08691 215.38867 299.04688 L 215.38867 362.39649 C 215.38867 366.35645 212.17992 369.56836 208.21875 369.56836 L 195.46875 369.56836 C 191.50758 369.56836 188.29688 366.35645 188.29688 362.39649 L 188.29688 299.04688 C 188.29688 295.08691 191.50758 291.875 195.46875 291.875 z M 158.41602 301.13477 L 171.16406 301.13477 C 175.12523 301.13477 178.33594 304.34668 178.33594 308.30664 L 178.33594 353.12891 C 178.33594 357.08888 175.12523 360.30079 171.16406 360.30079 L 158.41602 360.30079 C 154.45485 360.30079 151.24414 357.08888 151.24414 353.12891 L 151.24414 308.30664 C 151.24414 304.34668 154.45485 301.13477 158.41602 301.13477 z M 528.95313 310.40235 L 541.70118 310.40235 C 545.66235 310.40235 548.87305 313.61426 548.87305 317.57422 L 548.87305 343.8711 C 548.87305 347.83107 545.66235 351.04102 541.70118 351.04102 L 528.95313 351.04102 C 524.99196 351.04102 521.78126 347.83107 521.78126 343.8711 L 521.78126 317.57422 C 521.78126 313.61426 524.99196 310.40235 528.95313 310.40235 z M 121.36133 319.36133 L 134.10938 319.36133 C 138.07051 319.36133 141.28125 322.57324 141.28125 326.53321 L 141.28125 334.30274 C 141.28125 338.2627 138.07051 341.47461 134.10938 341.47461 L 121.36133 341.47461 C 117.4002 341.47461 114.18945 338.2627 114.18945 334.30274 L 114.18945 326.53321 C 114.18945 322.57324 117.4002 319.36133 121.36133 319.36133 z M 566.00782 319.58399 L 578.75587 319.58399 C 582.71703 319.58399 585.92774 322.7959 585.92774 326.75586 L 585.92774 334.52539 C 585.92774 338.48656 582.71703 341.69727 578.75587 341.69727 L 566.00782 341.69727 C 562.04665 341.69727 558.83594 338.48656 558.83594 334.52539 L 558.83594 326.75586 C 558.83594 322.7959 562.04665 319.58399 566.00782 319.58399 z "
       transform="matrix(0.26458333,0,0,0.26458333,265.70182,-68.427528)" /></g></svg>
