<?xml version="1.0" encoding="UTF-8" standalone="no"?>
<svg
   width="185.23923mm"
   height="185.23601mm"
   viewBox="0 0 185.23923 185.23601"
   version="1.1"
   id="svg919"
   inkscape:version="1.1 (c4e8f9ed74, 2021-05-24)"
   sodipodi:docname="logo_white.svg"
   inkscape:export-filename="/home/jhewers/Documents/autonoma/frontend/public/favicon-16x16.png"
   inkscape:export-xdpi="2.1939197"
   inkscape:export-ydpi="2.1939197"
   xmlns:inkscape="http://www.inkscape.org/namespaces/inkscape"
   xmlns:sodipodi="http://sodipodi.sourceforge.net/DTD/sodipodi-0.dtd"
   xmlns="http://www.w3.org/2000/svg"
   xmlns:svg="http://www.w3.org/2000/svg"
   xmlns:rdf="http://www.w3.org/1999/02/22-rdf-syntax-ns#"
   xmlns:cc="http://creativecommons.org/ns#"
   xmlns:dc="http://purl.org/dc/elements/1.1/">
  <defs
     id="defs913" />
  <sodipodi:namedview
     id="base"
     pagecolor="#ffffff"
     bordercolor="#666666"
     borderopacity="1.0"
     inkscape:pageopacity="0"
     inkscape:pageshadow="2"
     inkscape:zoom="0.49497475"
     inkscape:cx="281.83256"
     inkscape:cy="450.52803"
     inkscape:document-units="mm"
     inkscape:current-layer="layer1"
     inkscape:document-rotation="0"
     showgrid="false"
     inkscape:window-width="1267"
     inkscape:window-height="1019"
     inkscape:window-x="260"
     inkscape:window-y="165"
     inkscape:window-maximized="0"
     inkscape:pagecheckerboard="true" />
  <metadata
     id="metadata916">
    <rdf:RDF>
      <cc:Work
         rdf:about="">
        <dc:format>image/svg+xml</dc:format>
        <dc:type
           rdf:resource="http://purl.org/dc/dcmitype/StillImage" />
      </cc:Work>
    </rdf:RDF>
  </metadata>
  <g
     inkscape:label="Layer 1"
     inkscape:groupmode="layer"
     id="layer1"
     transform="translate(-265.70182,68.427528)">
    <path
       id="path3006"
       style="fill:#ffffff;fill-opacity:1;stroke:none;stroke-width:0;stroke-linecap:round;stroke-linejoin:round;stop-color:#000000"
       d="M 209.55859 73.519531 C 162.25633 73.519452 114.95499 91.642655 78.708984 127.88867 C 6.2162096 200.38089 6.2162096 317.10162 78.708984 389.59375 L 350.05664 660.94531 L 621.4082 389.59375 C 693.90105 317.10162 693.90105 200.38081 621.4082 127.88867 C 548.91615 55.396691 432.19713 55.396608 359.70508 127.88867 L 350.05859 137.53516 L 340.41211 127.88867 C 304.16689 91.642655 256.86244 73.519682 209.55859 73.519531 z M 312.71094 213.11914 C 370.18982 213.28945 441.71623 223.88683 513.18164 261.42188 C 524.69208 267.47016 529.12662 281.70391 523.07812 293.21484 C 518.86938 301.23497 510.681 305.81641 502.21289 305.81641 C 498.52199 305.81641 494.77861 304.94819 491.28516 303.11133 C 350.74773 229.29899 206.41271 273.49396 204.9707 273.94727 C 192.56565 277.86467 179.34285 270.98073 175.43164 258.58398 C 171.51662 246.18142 178.39463 232.95742 190.79492 229.04297 C 194.4323 227.89532 243.33987 212.9136 312.71094 213.11914 z M 303.44922 299.1582 C 353.63914 298.9004 417.36009 308.64168 481.48633 345.51758 C 490.64586 350.78584 493.80064 362.47943 488.53516 371.63867 C 484.994 377.79293 478.55334 381.23633 471.93164 381.23633 C 468.69376 381.23633 465.4183 380.41516 462.41406 378.6875 C 340.50094 308.57779 217.68447 349.39467 216.45703 349.8125 C 206.46491 353.23845 195.58776 347.91694 192.15625 337.92188 C 188.73049 327.92679 194.05387 317.0451 204.04883 313.61914 C 207.06502 312.58565 246.56731 299.45038 303.44922 299.1582 z M 302.24609 378.44141 C 346.34904 378.39607 401.00275 386.71941 452.40039 417.63672 C 460.06161 422.24567 462.5371 432.19238 457.92773 439.85352 C 454.893 444.90404 449.5335 447.69922 444.04102 447.69922 C 441.20085 447.69922 438.32609 446.95231 435.71289 445.38086 C 338.66706 387.00563 223.62583 420.76984 222.47852 421.11719 C 213.92839 423.69843 204.89002 418.87408 202.29492 410.33008 C 199.69604 401.78302 204.50143 392.75219 213.04297 390.14453 C 215.83064 389.29394 252.26275 378.49278 302.24609 378.44141 z "
       transform="matrix(0.26458333,0,0,0.26458333,265.70182,-68.427528)" />
  </g>
</svg>
