<svg xmlns="http://www.w3.org/2000/svg" xml:space="preserve" width="700.117" height="700.105" viewBox="0 0 185.239 185.236"><path d="M209.559 73.52c-47.303 0-94.604 18.123-130.85 54.369-72.493 72.492-72.493 189.213 0 261.705l271.348 271.351 271.351-271.351c72.493-72.492 72.493-189.213 0-261.705-72.492-72.492-189.211-72.492-261.703 0l-9.646 9.646-9.647-9.646c-36.245-36.246-83.55-54.37-130.853-54.37Zm134.125 124.095h12.75c3.96 0 7.171 2.537 7.171 5.664v254.885c0 3.128-3.21 5.664-7.171 5.664h-12.75c-3.962 0-7.172-2.536-7.172-5.664V203.28c0-3.127 3.21-5.664 7.172-5.664zm-37.053 20.153h12.748a7.172 7.172 0 0 1 7.172 7.171v211.565c0 3.96-3.211 7.172-7.172 7.172H306.63a7.172 7.172 0 0 1-7.172-7.172V224.939c0-3.96 3.21-7.171 7.172-7.171zm-37.055 18.527h12.75a7.172 7.172 0 0 1 7.172 7.172v174.512c0 3.96-3.21 7.171-7.172 7.171h-12.75a7.172 7.172 0 0 1-7.172-7.171V243.467c0-3.96 3.211-7.172 7.172-7.172zm111.162 0h12.748a7.172 7.172 0 0 1 7.172 7.172v174.512c0 3.96-3.21 7.171-7.172 7.171h-12.748a7.172 7.172 0 0 1-7.172-7.171V243.467c0-3.96 3.211-7.172 7.172-7.172zm74.108 18.527h12.748a7.172 7.172 0 0 1 7.172 7.172v137.457c0 3.96-3.211 7.172-7.172 7.172h-12.748a7.172 7.172 0 0 1-7.172-7.172V261.994c0-3.96 3.21-7.172 7.172-7.172zm-222.323 18.526h12.748a7.172 7.172 0 0 1 7.172 7.172v100.404c0 3.96-3.21 7.172-7.172 7.172h-12.748a7.172 7.172 0 0 1-7.171-7.172V280.52c0-3.96 3.21-7.172 7.171-7.172zm185.268 0h12.75a7.172 7.172 0 0 1 7.172 7.172v100.404c0 3.96-3.21 7.172-7.172 7.172h-12.75a7.172 7.172 0 0 1-7.172-7.172V280.52c0-3.96 3.21-7.172 7.172-7.172zm74.107 18.523h12.75a7.172 7.172 0 0 1 7.172 7.172v63.35c0 3.96-3.21 7.171-7.172 7.171h-12.75a7.17 7.17 0 0 1-7.17-7.171v-63.35a7.17 7.17 0 0 1 7.17-7.172zm-296.43.004h12.75a7.17 7.17 0 0 1 7.17 7.172v63.35a7.17 7.17 0 0 1-7.17 7.171h-12.75a7.172 7.172 0 0 1-7.171-7.171v-63.35c0-3.96 3.21-7.172 7.172-7.172zm-37.052 9.26h12.748a7.172 7.172 0 0 1 7.172 7.172v44.822c0 3.96-3.21 7.172-7.172 7.172h-12.748a7.172 7.172 0 0 1-7.172-7.172v-44.822c0-3.96 3.21-7.172 7.172-7.172zm370.537 9.267h12.748a7.172 7.172 0 0 1 7.172 7.172v26.297a7.17 7.17 0 0 1-7.172 7.17h-12.748a7.17 7.17 0 0 1-7.172-7.17v-26.297c0-3.96 3.211-7.172 7.172-7.172zm-407.592 8.96h12.748a7.172 7.172 0 0 1 7.172 7.171v7.77c0 3.96-3.21 7.172-7.172 7.172h-12.748a7.172 7.172 0 0 1-7.172-7.172v-7.77c0-3.96 3.211-7.172 7.172-7.172zm444.647.222h12.748a7.172 7.172 0 0 1 7.172 7.172v7.77a7.172 7.172 0 0 1-7.172 7.171h-12.748a7.172 7.172 0 0 1-7.172-7.172v-7.769c0-3.96 3.21-7.172 7.172-7.172z" style="fill:#54ba5f;fill-opacity:1;stroke:none;stroke-width:0;stroke-linecap:round;stroke-linejoin:round;stop-color:#000" transform="scale(.26458)"/></svg>
