<?xml version="1.0" encoding="UTF-8" standalone="no"?>
<svg
   width="185.23923mm"
   height="185.23601mm"
   viewBox="0 0 185.23923 185.23601"
   version="1.1"
   id="svg919"
   inkscape:version="1.1 (c4e8f9ed74, 2021-05-24)"
   sodipodi:docname="logo.svg"
   inkscape:export-filename="/home/jhewers/Documents/autonoma/frontend/src/img/logo.png"
   inkscape:export-xdpi="140.41086"
   inkscape:export-ydpi="140.41086"
   xmlns:inkscape="http://www.inkscape.org/namespaces/inkscape"
   xmlns:sodipodi="http://sodipodi.sourceforge.net/DTD/sodipodi-0.dtd"
   xmlns="http://www.w3.org/2000/svg"
   xmlns:svg="http://www.w3.org/2000/svg"
   xmlns:rdf="http://www.w3.org/1999/02/22-rdf-syntax-ns#"
   xmlns:cc="http://creativecommons.org/ns#"
   xmlns:dc="http://purl.org/dc/elements/1.1/">
  <defs
     id="defs913" />
  <sodipodi:namedview
     id="base"
     pagecolor="#ffffff"
     bordercolor="#666666"
     borderopacity="1.0"
     inkscape:pageopacity="0.0"
     inkscape:pageshadow="2"
     inkscape:zoom="0.7"
     inkscape:cx="-22.142857"
     inkscape:cy="312.14286"
     inkscape:document-units="mm"
     inkscape:current-layer="layer1"
     inkscape:document-rotation="0"
     showgrid="false"
     inkscape:window-width="1267"
     inkscape:window-height="1027"
     inkscape:window-x="260"
     inkscape:window-y="126"
     inkscape:window-maximized="0"
     inkscape:pagecheckerboard="0" />
  <metadata
     id="metadata916">
    <rdf:RDF>
      <cc:Work
         rdf:about="">
        <dc:format>image/svg+xml</dc:format>
        <dc:type
           rdf:resource="http://purl.org/dc/dcmitype/StillImage" />
      </cc:Work>
    </rdf:RDF>
  </metadata>
  <g
     inkscape:label="Layer 1"
     inkscape:groupmode="layer"
     id="layer1"
     transform="translate(-265.70182,68.427528)">
    <g
       id="g994"
       transform="matrix(2.1253229,0,0,2.1253229,-403.22716,-32.337127)">
      <path
         id="path3006"
         style="opacity:1;fill:#54ba5f;fill-opacity:1;stroke:none;stroke-width:0;stroke-linecap:round;stroke-linejoin:round;stop-color:#000000"
         d="m 340.83035,-7.8287106 c -5.8887,-10e-6 -11.7773,2.256211 -16.2896,6.76851 -9.02469,9.02462 -9.02469,23.5552586 0,32.5798686 l 33.7804,33.780774 33.7807,-33.780774 c 9.0247,-9.02461 9.0247,-23.5552586 0,-32.5798686 -9.0246,-9.0245914 -23.5549,-9.0246014 -32.5795,0 l -1.2009,1.20090997 -1.2009,-1.20090997 c -4.5122,-4.512299 -10.4013,-6.768491 -16.2902,-6.76851 z"
         sodipodi:nodetypes="sscccsscss" />
      <g
         id="g3014"
         transform="matrix(1.1872951,0,0,1.1872951,-1363.9521,274.52703)"
         style="opacity:1">
        <path
           d="m 1460.4402,-198.58053 c -0.2978,0 -0.5993,-0.0784 -0.8733,-0.24317 -10.1755,-6.12079 -22.2378,-2.58053 -22.3581,-2.54411 -0.8965,0.27065 -1.8443,-0.23516 -2.1164,-1.13102 -0.2725,-0.89618 0.2314,-1.84297 1.127,-2.11639 0.5502,-0.16788 13.6003,-4.0331 25.0972,2.88265 0.8033,0.48326 1.0629,1.52602 0.5796,2.32931 -0.3182,0.52956 -0.8801,0.82273 -1.456,0.82273"
           style="fill:#ffffff;fill-opacity:1;fill-rule:nonzero;stroke:none;stroke-width:0.308601"
           id="path3008" />
        <path
           d="m 1463.3646,-205.54935 c -0.3395,0 -0.683,-0.0861 -0.998,-0.26725 -12.7829,-7.35118 -25.6605,-3.0715 -25.7892,-3.02769 -1.0477,0.35922 -2.1883,-0.19873 -2.5481,-1.24674 -0.3592,-1.04801 0.199,-2.1889 1.247,-2.54812 0.5953,-0.20398 14.7459,-4.90398 29.09,3.34462 0.9604,0.55239 1.2912,1.77846 0.7391,2.73883 -0.3713,0.64529 -1.0465,1.00635 -1.7408,1.00635"
           style="fill:#ffffff;fill-opacity:1;fill-rule:nonzero;stroke:none;stroke-width:0.308601"
           id="path3010" />
        <path
           d="m 1466.5396,-213.45725 c -0.387,0 -0.7795,-0.091 -1.1458,-0.2836 -14.7357,-7.73941 -29.8695,-3.10546 -30.0207,-3.05793 -1.3007,0.41075 -2.6873,-0.31107 -3.0974,-1.6109 -0.4105,-1.30044 0.3107,-2.68698 1.6109,-3.09742 0.6974,-0.22004 17.2662,-5.29065 33.8032,3.39491 1.2069,0.63418 1.6717,2.12657 1.0375,3.33352 -0.4413,0.84093 -1.2998,1.32142 -2.1877,1.32142"
           style="fill:#ffffff;fill-opacity:1;fill-rule:nonzero;stroke:none;stroke-width:0.308601"
           id="path3012" />
      </g>
    </g>
  </g>
</svg>
